<svg width="885" height="885" xmlns="http://www.w3.org/2000/svg" xmlns:xlink="http://www.w3.org/1999/xlink" overflow="hidden"><defs><clipPath id="clip0"><rect x="1178" y="662" width="885" height="885"/></clipPath><radialGradient cx="1.22613e+06" cy="1.22613e+06" r="1.73401e+06" fx="1.22613e+06" fy="1.22613e+06" gradientUnits="userSpaceOnUse" spreadMethod="pad" id="fill1" gradientTransform="matrix(0.000360892 0 0 0.000360892 1178 662)"><stop offset="0" stop-color="#EAE9EA"/><stop offset="0.16" stop-color="#EAE9EA"/><stop offset="0.38" stop-color="#EFEFF1"/><stop offset="0.42" stop-color="#E7E6E6"/><stop offset="0.63" stop-color="#E7E6E6"/><stop offset="0.99" stop-color="#BFBFBF"/><stop offset="1" stop-color="#BFBFBF"/></radialGradient></defs><g clip-path="url(#clip0)" transform="translate(-1178 -662)"><path d="M1178 809.503C1178 728.039 1244.04 662 1325.5 662L1915.5 662C1996.96 662 2063 728.039 2063 809.503L2063 1399.5C2063 1480.96 1996.96 1547 1915.5 1547L1325.5 1547C1244.04 1547 1178 1480.96 1178 1399.5Z" fill="url(#fill1)" fill-rule="evenodd"/><path d="M1490.55 793.88 1490.55 881.762 1498.98 881.762C1512.69 881.762 1522.95 880.505 1529.75 877.99 1536.56 875.474 1541.91 870.937 1545.81 864.378 1549.7 857.819 1551.65 849.263 1551.65 838.709 1551.65 823.421 1548.07 812.128 1540.92 804.829 1533.77 797.53 1522.26 793.88 1506.38 793.88ZM1634.13 783.08 1802.05 783.08 1802.05 842.408 1796.43 842.408C1793.57 827.909 1789.55 817.503 1784.37 811.191 1779.19 804.878 1771.87 800.242 1762.4 797.283 1756.88 795.508 1746.52 794.62 1731.33 794.62L1710.62 794.62 1710.62 876.288 1714.61 876.288C1727.34 876.288 1736.56 872.294 1742.28 864.304 1748 856.315 1751.65 844.528 1753.23 828.944L1758.85 828.944 1758.85 933.988 1753.23 933.988C1752.04 922.547 1749.55 913.177 1745.76 905.878 1741.96 898.579 1737.54 893.672 1732.51 891.157 1727.48 888.642 1720.19 887.384 1710.62 887.384L1710.62 943.901C1710.62 954.948 1711.09 961.704 1712.02 964.17 1712.96 966.636 1714.71 968.658 1717.28 970.236 1719.84 971.814 1723.98 972.603 1729.7 972.603L1741.69 972.603C1760.43 972.603 1775.44 968.263 1786.74 959.584 1798.03 950.904 1806.14 937.687 1811.08 919.933L1816.55 919.933 1807.52 983.699 1634.13 983.699 1634.13 978.225 1640.79 978.225C1646.61 978.225 1651.29 977.19 1654.84 975.118 1657.41 973.737 1659.38 971.37 1660.76 968.017 1661.84 965.65 1662.39 959.436 1662.39 949.375L1662.39 817.404C1662.39 808.33 1662.14 802.757 1661.65 800.686 1660.66 797.234 1658.84 794.571 1656.17 792.697 1652.42 789.935 1647.3 788.554 1640.79 788.554L1634.13 788.554ZM1415.68 783.08 1508.89 783.08C1533.16 783.08 1550.91 784.757 1562.15 788.11 1573.4 791.464 1582.57 797.653 1589.67 806.678 1596.77 815.703 1600.32 826.281 1600.32 838.413 1600.32 853.208 1595 865.439 1584.35 875.105 1577.54 881.22 1568.02 885.806 1555.79 888.864L1604.02 956.773C1610.34 965.551 1614.82 971.025 1617.49 973.195 1621.53 976.253 1626.22 977.929 1631.54 978.225L1631.54 983.699 1568.37 983.699 1503.71 892.267 1490.55 892.267 1490.55 948.487C1490.55 959.337 1491.21 966.167 1492.54 968.978 1493.88 971.789 1496.22 974.033 1499.57 975.71 1502.93 977.387 1509.19 978.225 1518.36 978.225L1518.36 983.699 1415.68 983.699 1415.68 978.225C1424.96 978.225 1431.24 977.362 1434.55 975.636 1437.85 973.91 1440.17 971.666 1441.5 968.904 1442.83 966.143 1443.5 959.337 1443.5 948.487L1443.5 818.292C1443.5 807.443 1442.83 800.612 1441.5 797.801 1440.17 794.99 1437.83 792.746 1434.47 791.069 1431.12 789.393 1424.86 788.554 1415.68 788.554Z" stroke="#ED7D31" stroke-width="8" stroke-linejoin="round" stroke-miterlimit="10" fill="#ED7D31" fill-rule="evenodd"/><text fill="#000000" fill-opacity="0" font-family="Arial,Arial_MSFontService,sans-serif" font-size="200.619" x="1415.68" y="958.622">RE</text><path d="M1457.9 1146.08 1562.8 1146.08 1562.8 1151.55 1556.14 1151.55C1550.32 1151.55 1545.63 1152.59 1542.08 1154.66 1539.52 1156.04 1537.5 1158.41 1536.02 1161.76 1534.93 1164.13 1534.39 1170.34 1534.39 1180.4L1534.39 1312.38C1534.39 1322.63 1534.96 1329.04 1536.09 1331.61 1537.22 1334.17 1539.44 1336.42 1542.75 1338.34 1546.05 1340.26 1550.52 1341.23 1556.14 1341.23L1562.8 1341.23 1562.8 1346.7 1457.9 1346.7 1457.9 1341.23 1464.56 1341.23C1470.38 1341.23 1475.06 1340.19 1478.61 1338.12 1481.18 1336.74 1483.15 1334.37 1484.53 1331.02 1485.61 1328.65 1486.16 1322.44 1486.16 1312.38L1486.16 1180.4C1486.16 1170.15 1485.61 1163.74 1484.53 1161.17 1483.44 1158.61 1481.25 1156.36 1477.95 1154.44 1474.64 1152.52 1470.18 1151.55 1464.56 1151.55L1457.9 1151.55ZM1273.64 1146.08 1442.89 1146.08 1442.89 1203.63 1436.83 1203.63C1435.45 1190.12 1431.92 1180.11 1426.25 1173.6 1420.58 1167.09 1412.37 1162.5 1401.61 1159.84 1395.7 1158.36 1384.75 1157.62 1368.77 1157.62L1350.13 1157.62 1350.13 1240.03 1355.9 1240.03C1364.78 1240.03 1372.03 1238.7 1377.65 1236.03 1383.27 1233.37 1388.03 1228.88 1391.92 1222.57 1395.82 1216.26 1398.36 1207.73 1399.54 1196.97L1404.72 1196.97 1404.72 1297.73 1399.54 1297.73C1397.67 1278.69 1392.57 1266.14 1384.23 1260.08 1375.9 1254.01 1366.45 1250.98 1355.9 1250.98L1350.13 1250.98 1350.13 1312.38C1350.13 1322.63 1350.7 1329.04 1351.83 1331.61 1352.96 1334.17 1355.18 1336.42 1358.49 1338.34 1361.79 1340.26 1366.26 1341.23 1371.88 1341.23L1378.53 1341.23 1378.53 1346.7 1273.64 1346.7 1273.64 1341.23 1280.3 1341.23C1286.12 1341.23 1290.8 1340.19 1294.35 1338.12 1296.92 1336.74 1298.89 1334.37 1300.27 1331.02 1301.35 1328.65 1301.9 1322.44 1301.9 1312.38L1301.9 1180.4C1301.9 1170.15 1301.35 1163.74 1300.27 1161.17 1299.18 1158.61 1296.99 1156.36 1293.69 1154.44 1290.38 1152.52 1285.92 1151.55 1280.3 1151.55L1273.64 1151.55ZM1882.65 1141.49C1889.16 1141.49 1895.48 1142.28 1901.59 1143.86 1906.23 1145.04 1911.87 1147.24 1918.53 1150.44 1925.19 1153.65 1929.85 1155.25 1932.51 1155.25 1935.08 1155.25 1937.1 1154.46 1938.58 1152.89 1940.06 1151.31 1941.44 1147.51 1942.72 1141.49L1947.16 1141.49 1948.79 1208.37 1942.72 1208.37C1939.86 1191.6 1932.83 1178.11 1921.64 1167.9 1910.44 1157.69 1898.34 1152.59 1885.32 1152.59 1875.26 1152.59 1867.29 1155.28 1861.42 1160.65 1855.55 1166.03 1852.62 1172.22 1852.62 1179.22 1852.62 1183.66 1853.66 1187.6 1855.73 1191.06 1858.59 1195.69 1863.17 1200.28 1869.49 1204.82 1874.12 1208.07 1884.82 1213.84 1901.59 1222.13 1925.07 1233.67 1940.9 1244.57 1949.08 1254.82 1957.17 1265.08 1961.22 1276.82 1961.22 1290.03 1961.22 1306.8 1954.68 1321.23 1941.61 1333.31 1928.54 1345.39 1911.95 1351.43 1891.83 1351.43 1885.51 1351.43 1879.55 1350.79 1873.93 1349.51 1868.3 1348.23 1861.25 1345.81 1852.77 1342.26 1848.03 1340.29 1844.14 1339.3 1841.08 1339.3 1838.52 1339.3 1835.8 1340.29 1832.94 1342.26 1830.08 1344.23 1827.77 1347.24 1825.99 1351.29L1820.52 1351.29 1820.52 1275.54 1825.99 1275.54C1830.33 1296.84 1838.69 1313.09 1851.07 1324.29 1863.45 1335.48 1876.79 1341.08 1891.09 1341.08 1902.13 1341.08 1910.94 1338.07 1917.5 1332.05 1924.06 1326.04 1927.33 1319.03 1927.33 1311.04 1927.33 1306.31 1926.08 1301.72 1923.56 1297.28 1921.05 1292.85 1917.23 1288.63 1912.1 1284.63 1906.97 1280.64 1897.89 1275.44 1884.87 1269.03 1866.63 1260.05 1853.51 1252.41 1845.52 1246.09 1837.53 1239.78 1831.39 1232.73 1827.1 1224.94 1822.81 1217.15 1820.66 1208.56 1820.66 1199.19 1820.66 1183.22 1826.53 1169.6 1838.27 1158.36 1850.01 1147.12 1864.8 1141.49 1882.65 1141.49ZM1693.96 1141.35C1703.92 1141.35 1712.9 1142.13 1720.89 1143.71 1725.23 1144.5 1732.26 1146.75 1741.97 1150.44 1751.69 1154.14 1757.43 1155.99 1759.21 1155.99 1761.97 1155.99 1764.53 1154.98 1766.9 1152.96 1769.27 1150.94 1771.44 1147.12 1773.41 1141.49L1778.89 1141.49 1778.89 1212.21 1773.41 1212.21C1766.8 1192.88 1756.89 1178.19 1743.67 1168.12 1730.46 1158.06 1716.01 1153.03 1700.32 1153.03 1685.33 1153.03 1672.86 1157.25 1662.89 1165.68 1652.93 1174.12 1645.88 1185.88 1641.74 1200.97 1637.59 1216.06 1635.52 1231.55 1635.52 1247.43 1635.52 1266.66 1637.79 1283.53 1642.33 1298.02 1646.87 1312.52 1654.19 1323.18 1664.3 1329.98 1674.41 1336.79 1686.42 1340.19 1700.32 1340.19 1705.16 1340.19 1710.11 1339.67 1715.19 1338.64 1720.27 1337.6 1725.48 1336.1 1730.8 1334.12L1730.8 1292.4C1730.8 1284.51 1730.26 1279.41 1729.17 1277.09 1728.09 1274.77 1725.85 1272.68 1722.44 1270.8 1719.04 1268.93 1714.92 1267.99 1710.09 1267.99L1704.91 1267.99 1704.91 1262.52 1802.41 1262.52 1802.41 1267.99C1795.01 1268.48 1789.86 1269.49 1786.95 1271.02 1784.04 1272.55 1781.79 1275.09 1780.22 1278.64 1779.33 1280.52 1778.89 1285.1 1778.89 1292.4L1778.89 1334.12C1766.06 1339.84 1752.72 1344.16 1738.87 1347.07 1725.01 1349.98 1710.63 1351.43 1695.74 1351.43 1676.7 1351.43 1660.9 1348.84 1648.32 1343.67 1635.74 1338.49 1624.65 1331.68 1615.03 1323.25 1605.41 1314.82 1597.89 1305.32 1592.47 1294.77 1585.57 1281.16 1582.11 1265.92 1582.11 1249.05 1582.11 1218.87 1592.72 1193.37 1613.92 1172.56 1635.13 1151.75 1661.81 1141.35 1693.96 1141.35Z" stroke="#ED7D31" stroke-width="8" stroke-linejoin="round" stroke-miterlimit="10" fill="#ED7D31" fill-rule="evenodd"/><text fill="#000000" fill-opacity="0" font-family="Arial,Arial_MSFontService,sans-serif" font-size="210.088" x="1273.64" y="1325.17">FIGS</text></g></svg>