<svg width="200" height="200" xmlns="http://www.w3.org/2000/svg" xmlns:xlink="http://www.w3.org/1999/xlink" overflow="hidden"><defs><clipPath id="clip0"><rect x="206" y="417" width="200" height="200"/></clipPath></defs><g clip-path="url(#clip0)" transform="translate(-206 -417)"><path d="M222.426 486.141 304.379 524.207C305.219 524.598 306.137 524.793 307.035 524.793 307.934 524.793 308.852 524.598 309.691 524.207L391.254 486.18C393.461 485.164 394.887 482.957 394.906 480.535 394.926 478.113 393.539 475.887 391.352 474.832L309.789 435.164C308.051 434.324 306.02 434.324 304.301 435.164L222.328 474.754C220.141 475.809 218.734 478.035 218.754 480.496 218.793 482.918 220.219 485.125 222.426 486.141ZM307.016 447.859 373.91 480.379 307.016 511.531 239.789 480.32 307.016 447.859ZM384.379 512.918 306.703 553.582 228.031 511.746C224.965 510.105 221.137 511.277 219.496 514.344 217.855 517.41 219.027 521.238 222.094 522.879L303.715 566.258C304.633 566.746 305.668 566.98 306.664 566.98 307.66 566.98 308.676 566.746 309.574 566.258L390.199 524.051C393.285 522.43 394.477 518.641 392.855 515.535 391.273 512.488 387.465 511.297 384.379 512.918ZM384.379 545.945 306.703 586.629 228.031 544.812C224.965 543.172 221.137 544.344 219.496 547.41 217.855 550.477 219.027 554.305 222.094 555.945L303.715 599.324C304.633 599.812 305.668 600.047 306.664 600.047 307.66 600.047 308.676 599.812 309.574 599.324L390.199 557.117C393.285 555.496 394.477 551.707 392.855 548.602 391.273 545.535 387.465 544.344 384.379 545.945Z" fill="#009FAA"/></g></svg>