<svg width="874" height="905" xmlns="http://www.w3.org/2000/svg" xmlns:xlink="http://www.w3.org/1999/xlink" overflow="hidden"><defs><clipPath id="clip0"><rect x="1665" y="630" width="874" height="905"/></clipPath></defs><g clip-path="url(#clip0)" transform="translate(-1665 -630)"><path d="M2521.18 1174.36 2443.35 1112.82C2444.25 1101.96 2444.71 1092 2444.71 1082.5 2444.71 1073 2444.25 1063.04 2443.35 1052.18L2521.63 990.19C2539.73 975.71 2544.26 950.37 2532.49 930.46L2447.87 782.493C2436.56 762.583 2411.67 753.533 2389.95 762.13L2298.09 799.235C2281.8 787.47 2264.61 777.515 2246.51 768.917L2232.48 669.82C2228.86 646.742 2209.4 630.453 2186.32 630L2017.54 630C1994.46 630 1975 646.742 1971.38 670.272L1957.35 768.917C1939.25 777.515 1922.06 787.47 1905.77 799.235L1813.46 761.678C1792.64 753.533 1767.3 762.583 1755.99 782.04L1671.37 930.008C1659.6 950.37 1664.58 975.71 1682.68 990.19L1760.96 1052.18C1760.06 1063.04 1759.61 1073 1759.61 1082.5 1759.61 1092 1760.06 1101.96 1760.96 1112.82L1682.68 1174.81C1665.03 1189.29 1660.05 1214.63 1671.82 1234.54L1756.44 1382.51C1768.2 1402.87 1792.64 1411.47 1814.36 1402.87L1906.22 1365.31C1922.51 1377.08 1939.71 1387.03 1957.81 1395.63L1971.83 1495.18C1975.45 1517.8 1994.91 1535 2017.99 1535L2187.23 1535C2210.31 1535 2229.76 1517.8 2233.38 1494.73L2247.41 1395.63C2265.51 1387.03 2282.71 1377.08 2299 1365.31L2391.31 1402.87C2396.74 1405.13 2402.17 1406.04 2408.05 1406.04 2424.8 1406.04 2440.18 1396.99 2448.33 1382.51L2532.49 1234.54C2544.26 1214.63 2539.28 1189.29 2521.18 1174.36ZM1803.95 1144.49C1810.74 1139.06 1814.81 1130.01 1813.46 1120.96 1811.65 1108.29 1810.74 1095.17 1810.74 1082.5 1810.74 1069.83 1811.65 1056.71 1813.46 1044.04 1814.81 1034.99 1811.19 1025.94 1803.95 1020.51L1717.07 954.443 1796.26 810.548 1899.88 852.63C1908.48 856.25 1917.99 854.893 1925.23 849.01 1945.14 833.173 1967.31 820.503 1990.84 810.548 1998.98 806.928 2004.87 799.235 2006.22 790.185L2019.35 681.133 2182.25 678.87 2197.64 790.185C2198.99 799.235 2204.88 806.928 2213.02 810.095 2236.55 820.05 2258.72 833.173 2278.64 848.558 2285.88 853.988 2295.38 855.345 2303.98 852.178L2403.98 809.19 2488.15 951.275 2400.36 1020.96C2393.12 1026.39 2389.5 1035.44 2390.86 1044.49 2392.67 1057.16 2393.57 1070.28 2393.57 1082.95 2393.57 1095.62 2392.67 1108.74 2390.86 1121.42 2389.95 1130.47 2393.57 1139.06 2400.36 1144.94L2487.24 1211.46 2408.05 1355.36 2304.43 1313.27C2295.83 1309.65 2286.33 1311.01 2279.09 1316.9 2259.18 1332.73 2237 1345.4 2213.47 1355.36 2205.33 1358.98 2198.99 1366.67 2198.09 1375.72L2182.7 1484.77 2022.06 1487.03 2006.22 1375.72C2004.87 1366.67 1998.98 1358.98 1990.84 1355.36 1967.31 1345.4 1945.14 1332.73 1925.23 1316.9 1920.7 1313.27 1915.27 1311.46 1909.39 1311.46 1906.22 1311.46 1902.6 1311.92 1899.88 1313.27L1799.88 1356.26 1716.17 1213.72 1803.95 1144.49Z" fill="#009FAA" fill-rule="evenodd"/><path d="M2102 1263C2200.54 1263 2281 1181.9 2281 1082.23 2281 982.552 2200.54 901 2102 901 2003.46 901.453 1923 982.552 1923 1082.23 1923 1181.9 2003.46 1263 2102 1263ZM1974.08 1082.23C1974.08 1010.64 2031.48 952.65 2102 952.65 2172.52 952.65 2229.92 1010.64 2229.92 1082.23 2229.92 1153.81 2172.52 1211.8 2102 1211.8L2100.19 1211.8C2030.58 1210.9 1974.08 1152.9 1974.08 1082.23Z" fill="#009FAA" fill-rule="evenodd"/></g></svg>