<svg width="200" height="200" xmlns="http://www.w3.org/2000/svg" xmlns:xlink="http://www.w3.org/1999/xlink" overflow="hidden"><defs><clipPath id="clip0"><rect x="569" y="217" width="200" height="200"/></clipPath></defs><g clip-path="url(#clip0)" transform="translate(-569 -217)"><path d="M621.148 220.555C611.969 221.805 602.32 225.711 594.977 231.141 591.461 233.758 585.758 239.461 583.141 242.977 572.438 257.43 569.352 276.531 574.898 293.68 580.016 309.539 592.828 323.016 608.453 328.914L612.32 330.398 613.688 333.172C614.469 334.734 615.25 337.156 615.523 338.68 615.992 341.414 615.953 341.492 611.227 365.086 608.102 380.789 606.5 389.578 606.5 391.258 606.5 401.453 612.438 409.656 622.125 412.938 625.094 413.953 631.656 413.953 634.625 412.938 638.062 411.805 641.383 409.773 643.727 407.391 647.75 403.406 649.781 398.758 650.133 392.781 650.328 389.188 650.172 388.25 645.562 365.242 640.797 341.492 640.758 341.414 641.227 338.68 641.5 337.117 642.281 334.734 643.062 333.172 644.391 330.438 644.508 330.359 646.695 329.539 647.945 329.07 649.117 328.719 649.312 328.758 649.508 328.758 658.531 342.273 669.391 358.797L689.117 388.836 696.266 388.875 703.375 388.875 703.375 397.312C703.375 402.82 703.531 406.336 703.844 407.391 704.469 409.539 707.711 412.781 709.859 413.406 712.164 414.07 757.086 414.07 759.391 413.406 761.539 412.781 764.781 409.539 765.406 407.391 766.07 405.125 766.07 366.414 765.406 364.188 765.172 363.328 764.195 361.766 763.258 360.75 760.367 357.547 761.266 357.625 734.703 357.625 717.594 357.625 711.031 357.742 709.859 358.094 707.711 358.719 704.469 361.961 703.844 364.109 703.531 365.164 703.375 368.68 703.375 374.188L703.375 382.625 692.555 382.625 674.078 354.617C663.922 339.188 655.562 326.375 655.445 326.141 655.367 325.906 656.227 325.164 657.359 324.539 662.32 321.727 668.219 316.531 672.164 311.492L674.625 308.367 680.523 314.266 686.383 320.125 703.375 320.125 703.375 328.562C703.375 334.07 703.531 337.586 703.844 338.641 704.469 340.789 707.711 344.031 709.859 344.656 712.164 345.32 757.086 345.32 759.391 344.656 761.539 344.031 764.781 340.789 765.406 338.641 766.07 336.336 766.07 297.664 765.406 295.359 764.781 293.211 761.539 289.969 759.391 289.344 757.086 288.68 712.164 288.68 709.859 289.344 707.711 289.969 704.469 293.211 703.844 295.359 703.531 296.414 703.375 299.93 703.375 305.438L703.375 313.875 689.117 313.875 683.57 308.328 678.023 302.82 678.609 301.727C679.938 299.109 682.008 293.484 682.867 290.047 684.898 281.961 685.094 273.523 683.414 265.281L682.555 261.062 687.398 256.219 692.242 251.375 703.375 251.375 703.375 259.812C703.375 265.32 703.531 268.836 703.844 269.891 704.469 272.039 707.711 275.281 709.859 275.906 712.164 276.57 757.086 276.57 759.391 275.906 761.539 275.281 764.781 272.039 765.406 269.891 766.07 267.586 766.07 228.914 765.406 226.609 764.781 224.461 761.539 221.219 759.391 220.594 757.086 219.93 712.164 219.93 709.859 220.594 707.711 221.219 704.469 224.461 703.844 226.609 703.531 227.664 703.375 231.18 703.375 236.688L703.375 245.125 689.508 245.125 684.859 249.773 680.211 254.422 678.922 251.727C671.461 236.18 656.344 224.617 638.844 221.062 635.289 220.359 624.82 220.047 621.148 220.555ZM638.922 227.508C648.727 229.734 656.344 233.953 663.57 241.18 670.836 248.406 675.289 256.57 677.438 266.609 678.453 271.258 678.453 281.492 677.438 286.141 675.289 296.18 670.836 304.344 663.57 311.57 656.344 318.836 648.18 323.25 638.141 325.438 633.219 326.492 622.828 326.414 617.984 325.281 607.867 322.898 600.328 318.758 593.18 311.57 585.914 304.344 581.461 296.18 579.312 286.141 578.297 281.492 578.297 271.258 579.312 266.609 581.5 256.492 585.836 248.562 593.18 241.18 601.383 232.938 611.266 228.094 622.906 226.609 625.992 226.219 635.68 226.766 638.922 227.508ZM758.648 227.352 759.625 228.289 759.625 268.211 758.648 269.148 757.711 270.125 711.539 270.125 710.602 269.148 709.625 268.211 709.625 228.289 710.602 227.352 711.539 226.375 757.711 226.375 758.648 227.352ZM758.648 296.102 759.625 297.039 759.625 336.961 758.648 337.898 757.711 338.875 711.539 338.875 710.602 337.898 709.625 336.961 709.625 297.039 710.602 296.102 711.539 295.125 757.711 295.125 758.648 296.102ZM626.422 332.508C629.117 332.586 632.438 332.508 633.844 332.312 635.25 332.117 636.422 331.961 636.461 332 636.5 332.039 636.188 333.172 635.797 334.539 635.367 335.867 635.016 337.43 635.016 337.938L635.016 338.875 621.734 338.875 621.734 337.938C621.734 337.43 621.383 335.867 620.953 334.5 620.016 331.531 620.016 331.688 620.875 332.039 621.227 332.156 623.727 332.391 626.422 332.508ZM639.664 367.43C643.727 387.859 644.078 389.969 643.883 392.82 643.492 398.719 640.406 403.328 635.094 405.984 632.281 407.352 631.93 407.43 628.375 407.43 624.82 407.43 624.469 407.352 621.656 405.984 616.344 403.328 613.258 398.719 612.867 392.82 612.672 389.969 613.023 387.859 617.086 367.43L621.539 345.125 635.211 345.125 639.664 367.43ZM758.648 364.852 759.625 365.789 759.625 405.711 758.648 406.648 757.711 407.625 711.539 407.625 710.602 406.648 709.625 405.711 709.625 365.789 710.602 364.852 711.539 363.875 757.711 363.875 758.648 364.852Z" fill="#009FAA"/><path d="M621.344 233.211C607.633 235.398 595.562 244.344 589.156 257.117 580.836 273.719 584.234 293.953 597.516 307.234 610.562 320.242 630.25 323.758 646.695 315.984 653.453 312.781 658.453 308.836 662.828 303.172 676.383 285.633 674.859 261.18 659.234 245.516 649.195 235.516 635.367 231.023 621.344 233.211ZM637.398 240.008C644.391 241.805 649.859 244.969 654.938 250.164 659.977 255.242 663.219 261.023 664.977 268.016 665.914 271.727 665.914 281.023 664.977 284.734 663.18 291.961 660.094 297.391 654.742 302.742 649.391 308.094 643.961 311.18 636.734 312.977 632.906 313.914 624.078 313.914 620.172 312.977 605.953 309.539 595.328 298.953 591.773 284.734 590.836 281.023 590.836 271.727 591.773 268.016 593.57 260.906 596.773 255.203 601.969 249.969 608.141 243.836 613.883 240.945 623.688 239.109 625.992 238.68 634.508 239.227 637.398 240.008Z" fill="#009FAA"/><path d="M600.25 267.508C599.508 267.742 597.984 268.836 596.93 269.93 594.156 272.664 593.375 275.594 594.469 279.266 595.094 281.414 598.336 284.656 600.484 285.281 604.156 286.375 607.086 285.594 609.82 282.82 613.648 279.031 613.766 274.148 610.133 270.125 607.594 267.312 603.961 266.336 600.25 267.508ZM605.523 274.227C607.477 276.141 606.109 279.5 603.375 279.5 601.773 279.5 600.25 277.977 600.25 276.375 600.25 274.773 601.773 273.25 603.375 273.25 604.117 273.25 604.938 273.602 605.523 274.227ZM625.25 267.508C623.336 268.133 620.055 271.492 619.469 273.484 618.375 277.156 619.156 280.086 621.93 282.82 623.922 284.852 625.914 285.75 628.375 285.75 630.836 285.75 632.828 284.852 634.82 282.82 638.648 279.031 638.766 274.148 635.133 270.125 632.594 267.312 628.961 266.336 625.25 267.508ZM630.523 274.227C632.477 276.141 631.109 279.5 628.375 279.5 626.773 279.5 625.25 277.977 625.25 276.375 625.25 274.773 626.773 273.25 628.375 273.25 629.117 273.25 629.938 273.602 630.523 274.227ZM650.25 267.508C648.336 268.133 645.055 271.492 644.469 273.484 643.375 277.156 644.156 280.086 646.93 282.82 648.922 284.852 650.914 285.75 653.375 285.75 655.836 285.75 657.828 284.852 659.82 282.82 663.648 279.031 663.766 274.148 660.133 270.125 657.594 267.312 653.961 266.336 650.25 267.508ZM655.523 274.227C657.477 276.141 656.109 279.5 653.375 279.5 651.773 279.5 650.25 277.977 650.25 276.375 650.25 274.773 651.773 273.25 653.375 273.25 654.117 273.25 654.938 273.602 655.523 274.227ZM715.875 235.75 715.875 238.875 753.375 238.875 753.375 232.625 715.875 232.625 715.875 235.75ZM715.875 248.25 715.875 251.375 722.125 251.375 722.125 245.125 715.875 245.125 715.875 248.25ZM728.375 248.25 728.375 251.375 753.375 251.375 753.375 245.125 728.375 245.125 728.375 248.25ZM715.875 260.75 715.875 263.875 753.375 263.875 753.375 257.625 715.875 257.625 715.875 260.75ZM715.875 304.5 715.875 307.625 753.375 307.625 753.375 301.375 715.875 301.375 715.875 304.5ZM715.875 317 715.875 320.125 753.375 320.125 753.375 313.875 715.875 313.875 715.875 317ZM715.875 329.5 715.875 332.625 740.875 332.625 740.875 326.375 715.875 326.375 715.875 329.5ZM747.125 329.5 747.125 332.625 753.375 332.625 753.375 326.375 747.125 326.375 747.125 329.5ZM625.25 383.133C623.336 383.758 620.055 387.117 619.469 389.109 618.375 392.781 619.156 395.711 621.93 398.445 625.875 402.43 630.875 402.43 634.82 398.445 638.648 394.656 638.766 389.773 635.133 385.75 632.594 382.938 628.961 381.961 625.25 383.133ZM630.523 389.852C632.477 391.766 631.109 395.125 628.375 395.125 626.773 395.125 625.25 393.602 625.25 392 625.25 391.258 625.602 390.438 626.227 389.852 626.812 389.227 627.633 388.875 628.375 388.875 629.117 388.875 629.938 389.227 630.523 389.852ZM715.875 373.25 715.875 376.375 753.375 376.375 753.375 370.125 715.875 370.125 715.875 373.25ZM715.875 385.75 715.875 388.875 740.875 388.875 740.875 382.625 715.875 382.625 715.875 385.75ZM747.125 385.75 747.125 388.875 753.375 388.875 753.375 382.625 747.125 382.625 747.125 385.75ZM715.875 398.25 715.875 401.375 753.375 401.375 753.375 395.125 715.875 395.125 715.875 398.25Z" fill="#009FAA"/></g></svg>