<?xml version="1.0" standalone="no"?><!DOCTYPE svg PUBLIC "-//W3C//DTD SVG 1.1//EN" "http://www.w3.org/Graphics/SVG/1.1/DTD/svg11.dtd"><svg t="1719988676706" class="icon" viewBox="0 0 1024 1024" version="1.1" xmlns="http://www.w3.org/2000/svg" p-id="4299" xmlns:xlink="http://www.w3.org/1999/xlink" width="200" height="200"><path d="M907.7248 660.7872L512 829.0816l-395.6224-168.2944a33.3312 33.3312 0 0 0-26.0608 61.44l421.6832 179.2 421.7344-179.2a33.3312 33.3312 0 1 0-26.0096-61.44z" fill="#333333" p-id="4300"></path><path d="M907.7248 460.8L512 628.992 116.3776 460.8a33.3824 33.3824 0 0 0-26.0608 61.44L512 701.44l421.7344-179.2a33.3824 33.3824 0 1 0-26.0096-61.44z" fill="#333333" p-id="4301"></path><path d="M960 312.9856L512 122.5216l-448 190.464L512 503.5008l448-190.5152z" fill="#333333" p-id="4302"></path></svg>