<?xml version="1.0" standalone="no"?><!DOCTYPE svg PUBLIC "-//W3C//DTD SVG 1.1//EN" "http://www.w3.org/Graphics/SVG/1.1/DTD/svg11.dtd"><svg t="1720176381917" class="icon" viewBox="0 0 1024 1024" version="1.1" xmlns="http://www.w3.org/2000/svg" p-id="14330" xmlns:xlink="http://www.w3.org/1999/xlink" width="200" height="200"><path d="M959 510c-0.2-1-17.9-100.1-44.1-198-15.5-58-31-104.4-46-137.9-15.6-35-38.3-75.1-74.9-75.1-36.6 0-59.3 40.1-74.9 75.1-15 33.5-30.6 79.9-46.1 137.9-23.7 88.2-40.5 177.4-43.7 194.9-0.5 1.2-0.9 2.6-1.1 3.9-0.2 0.9-16.3 91-40.5 183.4-14.1 53.8-28.1 97.7-41.6 130.5-17.2 41.9-29.5 55.4-34.5 59.5-5-4.1-17.3-17.6-34.6-59.5-13.5-32.8-27.6-76.7-41.7-130.5-24.3-92.3-40.6-182.5-40.8-183.4-0.2-1.1-0.5-2.1-0.8-3.1-2.3-12.8-19.4-105.2-43.8-196.5-15.5-58-31-104.4-46-137.9-15.6-35-38.3-75.1-74.9-75.1-36.6 0-59.3 40.1-74.9 75.1-15 33.5-30.6 79.9-46.1 137.9-26.3 97.9-44.1 197-44.3 198-2.1 11.7 7.2 22.6 20.7 24.4 1.3 0.2 2.6 0.3 3.8 0.3 12 0 22.6-7.6 24.5-18.1 0.2-0.9 16.4-91 40.5-183.3 14.1-53.8 28-97.7 41.5-130.5 17.1-41.7 29.3-55.3 34.3-59.6 5 4.2 17.2 17.9 34.2 59.6 13.4 32.8 27.3 76.7 41.3 130.5 24.1 92.3 40.2 182.3 40.3 183.2 0.2 1.1 0.5 2.1 0.8 3.2 2.3 12.8 19.6 105.2 44.3 196.5 15.7 58 31.3 104.4 46.4 137.9 15.7 34.9 38.5 75 75.2 75s59.4-40.1 75.1-75.1c15.1-33.5 30.6-79.9 46.2-137.9 23.7-88.2 40.5-177.3 43.7-194.9 0.5-1.2 0.9-2.6 1.1-3.9 0.2-0.9 16.4-91 40.5-183.3 14.1-53.8 28-97.7 41.5-130.5 17.1-41.7 29.3-55.3 34.3-59.6 5 4.2 17.2 17.9 34.2 59.6 13.4 32.8 27.3 76.7 41.3 130.5 24.1 92.3 40.2 182.3 40.3 183.2 2.1 11.7 14.7 19.7 28.3 17.9 13.8-1.7 23.1-12.6 21-24.3z" p-id="14331" fill="#707070"></path></svg>