<?xml version="1.0" standalone="no"?><!DOCTYPE svg PUBLIC "-//W3C//DTD SVG 1.1//EN" "http://www.w3.org/Graphics/SVG/1.1/DTD/svg11.dtd"><svg t="1719982261871" class="icon" viewBox="0 0 1024 1024" version="1.1" xmlns="http://www.w3.org/2000/svg" p-id="8335" xmlns:xlink="http://www.w3.org/1999/xlink" width="200" height="200"><path d="M803.720058 0.109992a36.537502 36.537502 0 0 1 36.527503 36.157529V146.190007h72.99501a36.42751 36.42751 0 0 1 36.547502 36.477506v36.517504H73.349986V73.075005c0-40.317244 32.797758-72.99501 72.675032-72.99501z m-36.517503 72.995011H182.652514a36.527503 36.527503 0 0 0 0 73.045006H767.202555zM73.349986 219.225014h876.440087v730.70005c0 40.177254-32.747761 72.70503-73.214995 72.70503h-729.950101A72.925015 72.925015 0 0 1 73.349986 949.925064z m72.99501 0v694.142549a36.527503 36.527503 0 0 0 36.267521 36.247522h657.955022a36.507504 36.507504 0 0 0 36.217525-36.227524V219.225014z m542.762897 254.272618h-398.972726c-18.298749 0-33.157733-16.058902-33.157734-35.857549s14.848985-35.787554 33.157734-35.817551h398.842735c18.298749 0 33.157733 16.058902 33.157733 35.817551s-14.858984 35.857549-33.157733 35.857549zM514.19985 619.577646H292.535002a35.847549 35.847549 0 0 1 0-71.6851h221.63485a35.847549 35.847549 0 0 1 0 71.6851z m0 0" fill="#666666" p-id="8336"></path></svg>