<?xml version="1.0" standalone="no"?><!DOCTYPE svg PUBLIC "-//W3C//DTD SVG 1.1//EN" "http://www.w3.org/Graphics/SVG/1.1/DTD/svg11.dtd"><svg t="1720176651952" class="icon" viewBox="0 0 1024 1024" version="1.1" xmlns="http://www.w3.org/2000/svg" p-id="19075" xmlns:xlink="http://www.w3.org/1999/xlink" width="200" height="200"><path d="M101.274943 222.242237c39.3847-39.3847 78.7694-78.7694 95.648558-67.516629 28.131929 11.252771 0 56.263857-16.879157 84.395786-16.879157 22.505543-163.165187 219.429044-163.165187 354.462303 0 73.143015 28.131929 129.406872 73.143015 168.791572 45.011086 33.758314 95.648558 39.3847 146.286029 28.131929 61.890243-16.879157 106.901329-78.7694 174.417959-157.538801 67.516629-84.395786 157.541007-191.297115 230.679609-191.297116 90.024378 0 90.024378 56.263857 101.274944 101.274944-213.802658 33.758314-303.82483 208.178479-303.824831 303.82483s78.7694 174.417958 180.044344 174.417959c90.024378 0 241.934587-73.140808 264.44013-343.209531h140.659644v-140.659644h-140.659644c-11.252771-90.022172-61.888037-236.308201-225.05543-236.308201-123.780486 0-236.308201 106.901329-275.692901 157.538801-33.758314 39.3847-118.154101 140.659644-129.406873 151.914621-16.879157 16.876951-39.3847 45.00888-61.890243 45.00888s-39.3847-45.00888-22.505543-106.901329c22.505543-61.890243 78.7694-163.165187 106.901329-196.923502 39.3847-67.516629 67.516629-112.527715 67.516629-185.670729 0-123.780486-90.022172-163.165187-140.659643-163.165187-73.143015 0-135.033258 56.263857-151.912416 73.143015L0 126.593679l101.274943 95.648558z m523.256082 658.287133c-16.879157 0-39.389113-16.876951-39.389113-39.3847 0-33.758314 39.389113-123.782693 163.167393-157.538801-22.507749 151.912415-84.395786 196.923501-123.77828 196.923501z" p-id="19076" fill="#707070"></path></svg>