<?xml version="1.0" standalone="no"?><!DOCTYPE svg PUBLIC "-//W3C//DTD SVG 1.1//EN" "http://www.w3.org/Graphics/SVG/1.1/DTD/svg11.dtd"><svg t="1720176328412" class="icon" viewBox="0 0 1024 1024" version="1.1" xmlns="http://www.w3.org/2000/svg" p-id="13254" xmlns:xlink="http://www.w3.org/1999/xlink" width="200" height="200"><path d="M426.666667 128h170.666666v768h-170.666666z" fill="#707070" fill-opacity=".4" p-id="13255"></path><path d="M224 128m32 0l0 0q32 0 32 32l0 704q0 32-32 32l0 0q-32 0-32-32l0-704q0-32 32-32Z" fill="#707070" fill-opacity=".4" p-id="13256"></path><path d="M565.333333 128m32 0l0 0q32 0 32 32l0 704q0 32-32 32l0 0q-32 0-32-32l0-704q0-32 32-32Z" fill="#707070" p-id="13257"></path><path d="M394.666667 128m32 0l0 0q32 0 32 32l0 704q0 32-32 32l0 0q-32 0-32-32l0-704q0-32 32-32Z" fill="#707070" p-id="13258"></path><path d="M736 128m32 0l0 0q32 0 32 32l0 704q0 32-32 32l0 0q-32 0-32-32l0-704q0-32 32-32Z" fill="#707070" fill-opacity=".4" p-id="13259"></path></svg>