<?xml version="1.0" standalone="no"?><!DOCTYPE svg PUBLIC "-//W3C//DTD SVG 1.1//EN" "http://www.w3.org/Graphics/SVG/1.1/DTD/svg11.dtd"><svg t="1719988736659" class="icon" viewBox="0 0 1024 1024" version="1.1" xmlns="http://www.w3.org/2000/svg" p-id="8191" xmlns:xlink="http://www.w3.org/1999/xlink" width="200" height="200"><path d="M917.333333 341.333333H106.666667a21.333333 21.333333 0 0 1 0-42.666666h759.166666l-134.253333-134.246667a21.333333 21.333333 0 0 1 30.173333-30.173333l170.666667 170.666666A21.333333 21.333333 0 0 1 917.333333 341.333333z m-624.913333 548.42a21.333333 21.333333 0 0 0 0-30.173333L158.166667 725.333333H917.333333a21.333333 21.333333 0 0 0 0-42.666666H106.666667a21.333333 21.333333 0 0 0-15.086667 36.42l170.666667 170.666666a21.333333 21.333333 0 0 0 30.173333 0z" fill="#5C5C66" p-id="8192"></path></svg>