<?xml version="1.0" standalone="no"?><!DOCTYPE svg PUBLIC "-//W3C//DTD SVG 1.1//EN" "http://www.w3.org/Graphics/SVG/1.1/DTD/svg11.dtd"><svg t="1719926731339" class="icon" viewBox="0 0 1024 1024" version="1.1" xmlns="http://www.w3.org/2000/svg" p-id="5318" xmlns:xlink="http://www.w3.org/1999/xlink" width="200" height="200"><path d="M267 18.2c-47 6.4-96.4 26.4-134 54.2-18 13.4-47.2 42.6-60.6 60.6-54.8 74-70.6 171.8-42.2 259.6 26.2 81.2 91.8 150.2 171.8 180.4l19.8 7.6 7 14.2c4 8 8 20.4 9.4 28.2 2.4 14 2.2 14.4-22 135.2-16 80.4-24.2 125.4-24.2 134 0 52.2 30.4 94.2 80 111 15.2 5.2 48.8 5.2 64 0 17.6-5.8 34.6-16.2 46.6-28.4 20.6-20.4 31-44.2 32.8-74.8 1-18.4 0.2-23.2-23.4-141-24.4-121.6-24.6-122-22.2-136 1.4-8 5.4-20.2 9.4-28.2 6.8-14 7.4-14.4 18.6-18.6 6.4-2.4 12.4-4.2 13.4-4 1 0 47.2 69.2 102.8 153.8l101 153.8 36.6 0.2H688v43.2c0 28.2 0.8 46.2 2.4 51.6 3.2 11 19.8 27.6 30.8 30.8 11.8 3.4 241.8 3.4 253.6 0 11-3.2 27.6-19.8 30.8-30.8 3.4-11.6 3.4-209.8 0-221.2-1.2-4.4-6.2-12.4-11-17.6-14.8-16.4-10.2-16-146.2-16-87.6 0-121.2 0.6-127.2 2.4-11 3.2-27.6 19.8-30.8 30.8-1.6 5.4-2.4 23.4-2.4 51.6V848H632.6L538 704.6c-52-79-94.8-144.6-95.4-145.8-0.4-1.2 4-5 9.8-8.2 25.4-14.4 55.6-41 75.8-66.8l12.6-16 30.2 30.2 30 30H688v43.2c0 28.2 0.8 46.2 2.4 51.6 3.2 11 19.8 27.6 30.8 30.8 11.8 3.4 241.8 3.4 253.6 0 11-3.2 27.6-19.8 30.8-30.8 3.4-11.8 3.4-209.8 0-221.6-3.2-11-19.8-27.6-30.8-30.8-11.8-3.4-241.8-3.4-253.6 0-11 3.2-27.6 19.8-30.8 30.8-1.6 5.4-2.4 23.4-2.4 51.6V496h-73l-28.4-28.4-28.4-28.2 3-5.6c6.8-13.4 17.4-42.2 21.8-59.8 10.4-41.4 11.4-84.6 2.8-126.8l-4.4-21.6 24.8-24.8L631 176H688v43.2c0 28.2 0.8 46.2 2.4 51.6 3.2 11 19.8 27.6 30.8 30.8 11.8 3.4 241.8 3.4 253.6 0 11-3.2 27.6-19.8 30.8-30.8 3.4-11.8 3.4-209.8 0-221.6-3.2-11-19.8-27.6-30.8-30.8-11.8-3.4-241.8-3.4-253.6 0-11 3.2-27.6 19.8-30.8 30.8-1.6 5.4-2.4 23.4-2.4 51.6V144h-71l-23.8 23.8-23.8 23.8-6.6-13.8c-38.2-79.6-115.6-138.8-205.2-157-18.2-3.6-71.8-5.2-90.6-2.6zM358 53.8c50.2 11.4 89.2 33 126.2 70 37.2 37 60 78.8 71 130.2 5.2 23.8 5.2 76.2 0 100-11 51.4-33.8 93.2-71 130.2-37 37.2-78.8 59.8-130.2 71-25.2 5.4-78.4 5-103.2-0.8-51.8-12.2-90.4-33.4-127-70.2-37.2-37-60-78.8-71-130.2-5.2-23.8-5.2-76.2 0-100 11.2-51.8 33.4-92.4 71-130.2 42-42.2 92.6-67 152.2-74.6 15.8-2 65.4 0.8 82 4.6z m613-0.8l5 4.8v204.4l-5 4.8-4.8 5H729.8l-4.8-5-5-4.8V57.8l5-4.8 4.8-5h236.4l4.8 5z m0 352l5 4.8v204.4l-5 4.8-4.8 5H729.8l-4.8-5-5-4.8V409.8l5-4.8 4.8-5h236.4l4.8 5zM294 591.4c13.8 0.4 30.8 0 38-1 7.2-1 13.2-1.8 13.4-1.6 0.2 0.2-1.4 6-3.4 13-2.2 6.8-4 14.8-4 17.4v4.8h-68v-4.8c0-2.6-1.8-10.6-4-17.6-4.8-15.2-4.8-14.4-0.4-12.6 1.8 0.6 14.6 1.8 28.4 2.4z m67.8 178.8c20.8 104.6 22.6 115.4 21.6 130-2 30.2-17.8 53.8-45 67.4-14.4 7-16.2 7.4-34.4 7.4s-20-0.4-34.4-7.4c-27.2-13.6-43-37.2-45-67.4-1-14.6 0.8-25.4 21.6-130l22.8-114.2h70l22.8 114.2z m609.2-13.2l5 4.8v204.4l-5 4.8-4.8 5H729.8l-4.8-5-5-4.8V761.8l5-4.8 4.8-5h236.4l4.8 5z" p-id="5319"></path><path d="M268 83C197.8 94.2 136 140 103.2 205.4 60.6 290.4 78 394 146 462c66.8 66.6 167.6 84.6 251.8 44.8 34.6-16.4 60.2-36.6 82.6-65.6C549.8 351.4 542 226.2 462 146c-51.4-51.2-122.2-74.2-194-63z m82.2 34.8c35.8 9.2 63.8 25.4 89.8 52 25.8 26 42.4 55.6 51.4 91.4 4.8 19 4.8 66.6 0 85.6-9.2 37-25 64.8-52.4 92.2-27.4 27.4-55.2 43.2-92.2 52.4-19.6 4.8-64.8 4.8-84.8 0-72.8-17.6-127.2-71.8-145.4-144.6-4.8-19-4.8-66.6 0-85.6 9.2-36.4 25.6-65.6 52.2-92.4 31.6-31.4 61-46.2 111.2-55.6 11.8-2.2 55.4 0.6 70.2 4.6z" p-id="5320"></path><path d="M160 258.6c-3.8 1.2-11.6 6.8-17 12.4-14.2 14-18.2 29-12.6 47.8 3.2 11 19.8 27.6 30.8 30.8 18.8 5.6 33.8 1.6 47.8-12.6 19.6-19.4 20.2-44.4 1.6-65-13-14.4-31.6-19.4-50.6-13.4z m27 34.4c10 9.8 3 27-11 27-8.2 0-16-7.8-16-16s7.8-16 16-16c3.8 0 8 1.8 11 5zM288 258.6c-9.8 3.2-26.6 20.4-29.6 30.6-5.6 18.8-1.6 33.8 12.6 47.8 10.2 10.4 20.4 15 33 15 12.6 0 22.8-4.6 33-15 19.6-19.4 20.2-44.4 1.6-65-13-14.4-31.6-19.4-50.6-13.4z m27 34.4c10 9.8 3 27-11 27-8.2 0-16-7.8-16-16s7.8-16 16-16c3.8 0 8 1.8 11 5zM416 258.6c-9.8 3.2-26.6 20.4-29.6 30.6-5.6 18.8-1.6 33.8 12.6 47.8 10.2 10.4 20.4 15 33 15 12.6 0 22.8-4.6 33-15 19.6-19.4 20.2-44.4 1.6-65-13-14.4-31.6-19.4-50.6-13.4z m27 34.4c10 9.8 3 27-11 27-8.2 0-16-7.8-16-16s7.8-16 16-16c3.8 0 8 1.8 11 5zM752 96v16h192V80h-192v16zM752 160v16h32V144h-32v16zM816 160v16h128V144h-128v16zM752 224v16h192v-32h-192v16zM752 448v16h192v-32h-192v16zM752 512v16h192v-32h-192v16zM752 576v16h128v-32h-128v16zM912 576v16h32v-32h-32v16zM288 850.6c-9.8 3.2-26.6 20.4-29.6 30.6-5.6 18.8-1.6 33.8 12.6 47.8 20.2 20.4 45.8 20.4 66 0 19.6-19.4 20.2-44.4 1.6-65-13-14.4-31.6-19.4-50.6-13.4z m27 34.4c10 9.8 3 27-11 27-8.2 0-16-7.8-16-16 0-3.8 1.8-8 5-11 3-3.2 7.2-5 11-5s8 1.8 11 5zM752 800v16h192v-32h-192v16zM752 864v16h128v-32h-128v16zM912 864v16h32v-32h-32v16zM752 928v16h192v-32h-192v16z" p-id="5321"></path></svg>